<?xml version="1.0" standalone="no"?>
<!DOCTYPE svg PUBLIC "-//W3C//DTD SVG 20010904//EN"
 "http://www.w3.org/TR/2001/REC-SVG-20010904/DTD/svg10.dtd">
<svg version="1.0" xmlns="http://www.w3.org/2000/svg"
 width="800.000000pt" height="800.000000pt" viewBox="0 0 800.000000 800.000000"
 preserveAspectRatio="xMidYMid meet">
<metadata>
Created by potrace 1.11, written by Peter Selinger 2001-2013
</metadata>
<g transform="translate(0.000000,800.000000) scale(0.100000,-0.100000)"
fill="#000000" stroke="none">
<path d="M4700 6503 c14 -9 30 -22 36 -28 6 -5 31 -26 54 -45 90 -73 300 -289
300 -309 0 -5 3 -11 8 -13 26 -11 208 -293 202 -314 -1 -4 3 -10 10 -14 6 -4
12 -13 13 -21 2 -8 7 -21 12 -29 17 -27 54 -110 49 -110 -3 0 2 -12 10 -27 13
-25 26 -55 31 -75 2 -5 3 -9 5 -10 2 -3 1 1 44 -163 19 -71 37 -152 40 -180 3
-27 8 -61 11 -75 7 -33 18 -210 18 -280 0 -63 -11 -241 -18 -285 -2 -16 -6
-46 -9 -65 -6 -48 -11 -74 -31 -155 -9 -38 -18 -77 -20 -85 -2 -8 -4 -15 -5
-15 -2 0 -7 -20 -15 -60 -3 -16 -11 -32 -16 -36 -6 -3 -9 -10 -8 -15 1 -5 -1
-17 -4 -26 -4 -10 -10 -26 -14 -35 -3 -10 -7 -20 -8 -23 -13 -40 -114 -249
-125 -260 -7 -7 -26 -38 -46 -75 -30 -54 -125 -185 -135 -185 -5 0 -9 -5 -9
-11 0 -25 -244 -268 -336 -334 -15 -11 -48 -37 -73 -57 -25 -21 -49 -38 -53
-38 -4 0 -31 -15 -60 -34 -66 -42 -242 -126 -328 -155 -69 -25 -94 -32 -97
-32 -2 0 -21 -6 -43 -14 -22 -8 -42 -14 -45 -15 -3 0 -6 0 -7 -1 -2 0 -10 -2
-18 -4 -8 -2 -37 -8 -63 -14 -27 -6 -52 -9 -57 -6 -5 3 -11 1 -15 -5 -3 -5
-16 -9 -28 -9 -12 1 -47 -2 -77 -6 -64 -8 -286 -10 -380 -2 -105 8 -219 29
-307 56 -18 5 -33 7 -33 4 0 -3 -6 -1 -13 5 -7 6 -28 14 -46 17 -97 17 -444
189 -509 252 -7 7 -19 13 -27 13 -7 0 -15 4 -17 9 -1 4 -37 35 -78 69 -41 33
-118 105 -172 159 l-96 100 -24 -22 c-12 -11 -25 -21 -28 -21 -3 0 -15 -9 -28
-19 -12 -11 -25 -19 -27 -18 -3 1 -17 -9 -31 -22 -15 -14 -29 -23 -31 -21 -3
2 -14 -4 -26 -15 -42 -36 -53 -45 -92 -69 -22 -13 -44 -30 -50 -37 -5 -6 -16
-13 -24 -15 -14 -3 -71 -54 -71 -63 0 -11 47 -106 92 -184 26 -46 48 -88 48
-92 0 -5 5 -9 10 -9 6 0 10 -7 10 -15 0 -9 7 -18 15 -21 8 -4 15 -15 15 -25 0
-10 5 -19 10 -19 6 0 14 -8 17 -17 4 -10 12 -23 17 -30 14 -16 24 -29 61 -78
32 -43 62 -78 113 -133 17 -19 32 -39 32 -45 0 -6 3 -7 6 -4 7 7 54 -42 54
-56 0 -5 4 -6 8 -3 5 3 15 -4 23 -16 19 -27 26 -34 94 -93 32 -27 64 -56 71
-63 7 -6 15 -12 18 -12 3 0 18 -12 33 -26 15 -15 55 -45 88 -67 33 -22 62 -44
63 -49 2 -4 8 -8 13 -8 5 0 40 -20 78 -44 38 -25 72 -42 75 -39 3 4 6 1 6 -4
0 -9 218 -123 255 -134 6 -1 37 -15 70 -29 33 -15 81 -33 108 -41 26 -7 47
-16 47 -20 0 -4 19 -10 41 -14 23 -4 57 -14 75 -21 18 -8 50 -17 71 -20 21 -3
46 -10 56 -15 9 -5 17 -7 17 -5 0 3 11 1 24 -4 13 -5 45 -11 71 -14 26 -3 50
-8 53 -10 4 -2 32 -7 62 -11 30 -4 59 -10 64 -13 5 -3 26 -6 45 -7 20 -2 74
-6 121 -10 110 -10 365 -10 455 0 39 4 92 9 118 11 26 2 51 5 55 8 4 2 37 8
72 11 36 4 68 9 72 11 4 2 26 7 50 10 24 4 51 10 61 15 9 6 17 7 17 5 0 -3 12
-1 28 5 15 6 41 13 57 15 17 3 47 11 67 19 20 8 47 17 60 19 30 6 134 44 178
64 19 9 37 17 40 17 3 1 22 9 44 18 21 9 42 17 46 17 4 0 13 7 20 15 7 8 16
13 20 10 4 -3 13 2 20 10 6 7 18 11 26 8 8 -3 14 -1 14 4 0 5 16 15 35 22 19
7 35 17 35 22 0 5 7 9 16 9 8 0 22 7 31 15 8 8 19 13 24 10 5 -4 9 -1 9 5 0
10 52 36 57 28 2 -2 10 7 18 20 9 12 22 22 30 22 8 0 18 7 23 16 5 9 13 16 18
16 12 1 54 28 84 55 14 13 28 23 31 23 3 0 21 13 40 29 18 16 37 27 41 25 4
-3 8 2 8 10 0 9 4 16 9 16 5 0 23 13 39 30 16 16 32 27 35 24 3 -3 8 4 12 15
3 11 15 23 26 26 10 4 19 13 19 21 0 8 4 14 10 14 12 0 102 91 146 148 19 24
34 40 34 37 0 -10 96 116 160 210 30 44 58 82 63 83 4 2 7 10 7 17 0 8 7 21
16 29 8 9 13 16 9 16 -3 0 2 12 13 28 11 15 23 37 26 50 4 12 12 22 17 22 5 0
9 4 9 10 0 5 21 52 46 106 25 53 47 101 49 108 1 6 8 25 14 41 7 17 14 37 16
45 2 8 13 40 24 71 11 31 23 71 26 89 3 18 8 36 10 40 2 3 6 17 9 31 2 13 9
46 15 73 7 27 10 51 7 53 -3 3 0 17 5 31 6 14 12 53 15 85 3 33 9 80 12 106 9
56 8 324 -1 406 -11 97 -20 160 -32 215 -3 14 -8 41 -11 60 -3 19 -8 38 -11
43 -2 4 -6 20 -9 35 -3 15 -7 34 -11 42 -7 17 -10 26 -17 55 -6 28 -61 181
-81 230 -29 70 -126 259 -141 276 -8 9 -11 19 -7 22 3 4 1 7 -5 7 -7 0 -12 5
-12 10 0 6 -9 20 -20 32 -10 12 -17 25 -14 30 3 4 0 8 -5 8 -6 0 -11 7 -11 15
0 8 -4 15 -8 15 -5 0 -17 16 -28 35 -10 19 -22 35 -26 35 -5 0 -8 6 -8 14 0 8
-7 16 -15 20 -8 3 -15 10 -15 16 0 6 -11 21 -25 34 -14 13 -25 26 -25 29 0 7
-11 19 -145 157 -55 56 -127 125 -160 153 -33 28 -72 64 -87 79 -16 15 -28 24
-28 20 -1 -4 -10 4 -20 17 -11 13 -20 19 -20 15 0 -5 -4 -4 -8 1 -4 6 -14 15
-24 20 -9 6 -51 34 -94 63 -42 28 -81 52 -85 52 -5 0 -9 4 -9 8 0 4 -26 21
-57 37 -32 17 -61 34 -64 38 -3 5 -8 8 -10 6 -2 -1 -46 19 -98 44 -51 26 -100
47 -107 47 -8 0 -14 4 -14 9 0 5 -15 13 -32 16 -18 4 -46 14 -61 22 -16 8 -36
16 -45 18 -10 2 -53 15 -97 30 -44 15 -86 28 -95 30 -8 2 -27 8 -42 14 -16 6
-28 8 -28 5 0 -2 -8 0 -18 5 -11 6 -41 13 -68 17 -27 3 -57 10 -66 15 -30 16
-43 10 -18 -8z"/>
<path d="M4605 5938 c-27 -26 -43 -39 -94 -79 -25 -19 -61 -48 -80 -66 -20
-17 -70 -59 -111 -93 -41 -34 -84 -69 -95 -78 -11 -9 -45 -37 -75 -62 -30 -25
-64 -52 -75 -62 -11 -9 -40 -33 -65 -53 -62 -50 -76 -62 -147 -122 -34 -29
-65 -53 -67 -53 -3 0 -18 -12 -34 -27 -35 -34 -219 -185 -238 -196 -8 -4 -26
-20 -42 -34 -15 -14 -47 -42 -72 -62 -25 -20 -47 -38 -50 -41 -3 -3 -45 -39
-95 -79 -49 -41 -116 -97 -147 -123 -31 -26 -60 -48 -64 -48 -3 0 -14 -8 -23
-18 -9 -9 -32 -29 -51 -44 -19 -14 -55 -44 -80 -67 -25 -22 -48 -41 -51 -41
-3 0 -19 -12 -35 -27 -16 -16 -44 -39 -63 -53 -18 -14 -44 -35 -57 -47 -12
-13 -26 -23 -29 -23 -3 0 -26 -20 -53 -45 -26 -25 -65 -58 -86 -73 -22 -15
-60 -46 -85 -68 -64 -58 -171 -146 -171 -140 0 2 -18 -14 -40 -36 -22 -23 -40
-38 -40 -34 0 4 -19 -12 -43 -35 -23 -23 -44 -42 -47 -42 -13 1 -29 -10 -25
-17 3 -5 -4 -11 -15 -15 -11 -3 -20 -11 -20 -16 0 -5 -6 -9 -14 -9 -8 0 -17
-8 -20 -17 -4 -10 -31 -36 -61 -57 -30 -22 -55 -43 -55 -47 0 -4 -9 -10 -19
-14 -11 -3 -38 -23 -60 -43 -23 -20 -55 -48 -72 -62 -17 -14 -41 -33 -52 -44
-12 -10 -33 -26 -47 -35 -14 -9 -38 -28 -55 -44 -59 -54 -126 -107 -136 -107
-6 0 -7 -4 -4 -10 3 -5 2 -10 -3 -10 -11 0 -136 -99 -140 -111 -2 -5 -8 -9
-13 -9 -5 0 -23 -14 -39 -30 -16 -17 -32 -30 -35 -30 -3 0 -19 -13 -35 -30
-16 -16 -34 -31 -40 -32 -7 -2 -26 -16 -44 -33 -74 -68 -106 -95 -111 -95 -3
0 -14 -8 -24 -17 -54 -50 -69 -63 -75 -63 -4 0 -17 -11 -30 -25 -13 -14 -29
-25 -35 -25 -7 0 -10 -4 -7 -9 3 -4 -6 -13 -19 -19 -14 -7 -25 -16 -25 -22 0
-5 -7 -10 -15 -10 -8 0 -15 -5 -15 -11 0 -5 -5 -7 -12 -3 -7 4 -8 3 -4 -5 4
-6 0 -14 -8 -17 -28 -11 -85 -69 -78 -80 4 -6 32 -16 62 -22 84 -18 100 -20
100 -11 0 5 9 9 20 9 11 0 20 3 20 8 0 10 72 58 83 54 5 -1 6 2 3 7 -3 5 5 16
19 25 14 9 25 14 25 11 0 -3 9 3 19 13 25 22 34 28 111 82 36 24 70 48 75 52
48 39 183 128 193 128 7 0 11 4 7 10 -3 5 13 20 36 32 70 39 84 48 75 48 -6 0
12 15 39 33 27 17 58 39 70 47 86 60 110 76 124 85 9 6 23 17 31 25 8 8 27 21
42 29 14 7 40 26 58 42 17 16 35 29 39 29 5 0 29 16 54 35 25 19 48 35 51 35
3 0 18 11 33 26 30 27 115 88 123 89 7 0 57 36 87 63 14 12 31 22 37 22 6 0
17 9 24 20 7 12 17 18 22 15 6 -3 10 -2 10 2 0 5 18 19 40 33 22 14 40 28 40
32 0 5 5 8 10 8 6 0 16 5 23 10 7 6 44 33 82 60 39 27 75 54 82 60 7 5 15 10
17 10 9 0 101 72 104 81 2 5 10 9 17 9 8 0 20 6 28 14 7 8 38 30 68 50 30 19
86 58 124 86 39 28 77 53 85 57 8 4 17 10 20 13 4 6 80 60 144 103 20 13 84
61 103 77 7 5 16 10 22 10 5 0 11 4 13 8 2 4 45 37 96 72 94 66 189 133 207
147 6 4 30 22 55 38 24 17 55 39 68 50 13 11 27 20 31 20 3 0 17 10 31 23 13
12 30 22 37 22 7 0 13 4 13 9 0 5 17 20 38 32 20 13 39 26 42 29 3 3 58 43
122 87 176 123 182 127 195 143 7 8 13 11 13 7 0 -5 6 -2 13 5 8 7 40 31 73
53 32 22 70 50 84 63 14 12 30 22 37 22 6 0 13 3 15 8 5 12 148 116 148 107 0
-2 15 9 32 26 18 16 36 29 41 29 9 0 3 179 -8 260 -10 70 -15 102 -20 109 -2
4 -6 18 -9 32 -2 13 -10 38 -17 54 -7 17 -12 32 -11 35 0 3 -12 19 -26 36 -27
31 -27 31 -47 12z"/>
<path d="M1585 4833 c-15 -49 -34 -108 -41 -133 -8 -25 -18 -58 -24 -75 -5
-16 -12 -43 -14 -60 -3 -16 -8 -40 -10 -51 -10 -50 -18 -101 -21 -129 -2 -16
-6 -64 -10 -105 -16 -167 -3 -484 24 -586 5 -21 12 -55 14 -74 2 -19 10 -54
17 -77 11 -36 15 -40 31 -30 10 6 15 15 13 19 -3 4 -1 8 5 8 8 0 34 19 80 60
59 53 110 88 116 82 5 -4 5 -1 1 6 -4 6 -4 12 1 12 18 1 105 88 94 94 -6 4
-11 16 -11 27 0 10 -4 19 -10 19 -5 0 -9 3 -8 8 1 4 -5 21 -14 37 -21 40 -87
205 -92 230 -3 11 -11 39 -19 62 -9 22 -18 57 -21 75 -3 19 -8 41 -10 49 -8
21 -24 103 -31 154 -2 17 -6 44 -9 60 -11 60 -20 192 -19 298 1 59 0 107 -1
107 -1 0 -15 -39 -31 -87z"/>
</g>
</svg>
